# xmcd CD database file
#
# Track frame offsets:
#	150
#	27337
#	49077
#	66822
#	87027
#	101542
#	117122
#	141120
#	153102
#	173392
#	188820
#	214287
#	226992
#
# Disc length: 3318 seconds
#
# Revision: 2
# Processed by: cddbd v1.5.1PL0 Copyright (c) Steve Scherf et al.
# Submitted via: CDex 1.51
#
DISCID=a00cf40d
DTITLE=Blind Freddy - Blind Freddy
DYEAR=1995
DGENRE=Blues
TTITLE0=Voodoo Child
TTITLE1=Cry To Me
TTITLE2=The Answer
TTITLE3=I'd Rather Go Blind
TTITLE4=If It Wasn't For The Blues
TTITLE5=Play This Record Backwards
TTITLE6=I Ought To Be Ashamed
TTITLE7=Hope Aint Enough
TTITLE8=I'm Gonna Live The Life I Sing About In My Song
TTITLE9=Cleaning Woman
TTITLE10=The Welfare
TTITLE11=Byron Bound
TTITLE12=Drinking Song
EXTD=Published by Bent Notes, 1995\nA local (Canberra, Australia) blues band YEAR: 1995
EXTT0=
EXTT1=
EXTT2=
EXTT3=
EXTT4=
EXTT5=
EXTT6=
EXTT7=
EXTT8=
EXTT9=
EXTT10=
EXTT11=
EXTT12=
PLAYORDER=
